<?xml version="1.0" encoding="utf-8"?>
<!-- Generated by IcoMoon.io -->
<!DOCTYPE svg PUBLIC "-//W3C//DTD SVG 1.1//EN" "http://www.w3.org/Graphics/SVG/1.1/DTD/svg11.dtd">
<svg version="1.1" xmlns="http://www.w3.org/2000/svg" xmlns:xlink="http://www.w3.org/1999/xlink" >

    <symbol id="0398-facebook2" width="25" height="25" viewBox="0 0 64 64" >
      <title>0398-facebook2</title>
		<path d="M53.334 0h-42.669c-5.891 0-10.665 4.776-10.665 10.668v42.664c0 5.892 4.775 10.668 10.665 10.668h21.334v-28h-8v-8h8v-6c0-5.523 4.477-10 10-10h10v8h-10c-1.105 0-2 0.895-2 2v6h11l-2 8h-9v28h13.334c5.891 0 10.666-4.776 10.666-10.668v-42.664c0-5.892-4.775-10.668-10.666-10.668z" fill="#727170"></path>
    </symbol>

    <symbol id="0032-book" width="30" height="30" viewBox="0 0 64 64" >
      <title>0032-book</title>
<path d="M56 8v52h-42c-3.314 0-6-2.686-6-6s2.686-6 6-6h38v-48h-40c-4.4 0-8 3.6-8 8v48c0 4.4 3.6 8 8 8h48v-56h-4z" fill="#f0f0f0"></path>
<path d="M14.004 52v0c-0.001 0-0.002 0-0.004 0-1.104 0-2 0.895-2 2s0.896 2 2 2c0.001 0 0.002-0 0.004-0v0h37.993v-4h-37.993z" fill="#f0f0f0"></path>
    </symbol>

    <symbol id="0175-briefcase" width="30" height="30" viewBox="0 0 64 64" >
      <title>0175-briefcase</title>
      <path d="M60 16h-16v-4c0-2.2-1.8-4-4-4h-16c-2.2 0-4 1.8-4 4v4h-16c-2.2 0-4 1.8-4 4v36c0 2.2 1.8 4 4 4h56c2.2 0 4-1.8 4-4v-36c0-2.2-1.8-4-4-4zM24 12.007c0.002-0.002 0.005-0.005 0.007-0.007h15.986c0.003 0.002 0.005 0.005 0.007 0.007v3.993h-16v-3.993zM60 32h-8v6c0 1.1-0.9 2-2 2h-4c-1.1 0-2-0.9-2-2v-6h-24v6c0 1.1-0.9 2-2 2h-4c-1.1 0-2-0.9-2-2v-6h-8v-4h56v4z" fill="#f0f0f0"></path>
    </symbol>

    <symbol id="0055-price-tags" width="30" height="20" viewBox="0 0 80 64" >
      <title>0055-price-tags</title>
      <path d="M77 0h-24c-1.65 0-3.955 0.955-5.121 2.121l-29.757 29.757c-1.167 1.167-1.167 3.076 0 4.243l25.757 25.757c1.167 1.167 3.076 1.167 4.243 0l29.757-29.757c1.167-1.167 2.121-3.471 2.121-5.121v-24c0-1.65-1.35-3-3-3zM62 24c-3.314 0-6-2.686-6-6s2.686-6 6-6 6 2.686 6 6-2.686 6-6 6z" fill="#f0f0f0"></path>
      <path d="M8 34l34-34h-5c-1.65 0-3.955 0.955-5.121 2.121l-29.757 29.757c-1.167 1.167-1.167 3.076 0 4.243l25.757 25.757c1.167 1.167 3.076 1.167 4.243 0l1.879-1.879-26-26z" fill="#f0f0f0"></path>
    </symbol>

    <symbol id="0003-home" width="30" height="30" viewBox="0 0 64 64" >
      <title>0003-home</title>
      <path d="M64 38l-12-12v-18h-8v10l-12-12-32 32v2h8v20h20v-12h8v12h20v-20h8z" fill="#f0f0f0"></path>
    </symbol>

    <symbol id="0049-folder-open" width="30" height="30" viewBox="0 0 64 64" >
      <title>0049-folder-open</title>
      <path d="M52 60l12-32h-52l-12 32zM8 24l-8 36v-52h18l8 8h26v8z" fill="#f0f0f0"></path>
    </symbol>

    <symbol id="0079-clock" width="10" height="10" viewBox="0 0 64 64" >
      <title>0079-clock</title>
  <path d="M41.172 46.828l-13.172-13.172v-17.657h8v14.343l10.828 10.828zM32 0c-17.673 0-32 14.327-32 32s14.327 32 32 32 32-14.327 32-32-14.327-32-32-32zM32 56c-13.255 0-24-10.745-24-24s10.745-24 24-24c13.255 0 24 10.745 24 24s-10.745 24-24 24z" fill="#727170"></path>
    </symbol>

    <symbol id="0402-twitter" width="25" height="25" viewBox="0 0 64 64" >
      <title>0402-twitter</title>
		<path d="M64 12.151c-2.355 1.044-4.885 1.75-7.541 2.067 2.711-1.625 4.793-4.198 5.773-7.264-2.537 1.505-5.347 2.597-8.338 3.186-2.395-2.552-5.808-4.146-9.584-4.146-7.251 0-13.13 5.879-13.13 13.13 0 1.029 0.116 2.031 0.34 2.992-10.912-0.548-20.588-5.775-27.064-13.719-1.13 1.939-1.778 4.195-1.778 6.601 0 4.556 2.318 8.575 5.841 10.929-2.152-0.068-4.177-0.659-5.947-1.642-0.001 0.055-0.001 0.11-0.001 0.165 0 6.362 4.526 11.668 10.533 12.875-1.102 0.3-2.262 0.461-3.459 0.461-0.846 0-1.669-0.083-2.47-0.236 1.671 5.216 6.52 9.013 12.266 9.118-4.494 3.522-10.155 5.621-16.307 5.621-1.060 0-2.105-0.062-3.132-0.184 5.811 3.726 12.713 5.9 20.128 5.9 24.151 0 37.358-20.008 37.358-37.359 0-0.569-0.013-1.136-0.038-1.699 2.566-1.851 4.792-4.164 6.552-6.797z" fill="#727170"></path>
    </symbol>

    <symbol id="0434-github" width="25" height="25" viewBox="0 0 64 64" >
      <title>0434-github</title>
		<path d="M32.001 0.79c-17.671 0-32.001 14.326-32.001 32 0 14.138 9.169 26.133 21.884 30.365 1.599 0.296 2.187-0.694 2.187-1.539 0-0.763-0.030-3.284-0.044-5.958-8.903 1.936-10.781-3.776-10.781-3.776-1.455-3.699-3.553-4.682-3.553-4.682-2.903-1.986 0.219-1.945 0.219-1.945 3.213 0.226 4.905 3.298 4.905 3.298 2.855 4.892 7.486 3.477 9.313 2.66 0.287-2.068 1.116-3.48 2.032-4.279-7.108-0.809-14.58-3.553-14.58-15.815 0-3.494 1.25-6.348 3.297-8.589-0.332-0.806-1.428-4.061 0.309-8.469 0 0 2.688-0.86 8.802 3.281 2.552-0.709 5.29-1.065 8.010-1.077 2.719 0.012 5.459 0.368 8.016 1.077 6.108-4.14 8.791-3.281 8.791-3.281 1.742 4.408 0.647 7.663 0.315 8.469 2.051 2.241 3.293 5.096 3.293 8.589 0 12.291-7.486 14.997-14.612 15.789 1.148 0.993 2.17 2.94 2.17 5.926 0 4.282-0.037 7.728-0.037 8.782 0 0.852 0.576 1.85 2.198 1.535 12.708-4.236 21.865-16.227 21.865-30.361 0-17.674-14.327-32-32-32z" fill="#727170"></path>
    </symbol>

    <symbol id="0485-codepen" width="25" height="25" viewBox="0 0 64 64" >
      <title>0485-codepen</title>
		<path d="M59.109 23.003l-28-18.667c-0.672-0.448-1.547-0.448-2.219 0l-28 18.667c-0.556 0.371-0.891 0.995-0.891 1.664v18.667c0 0.669 0.334 1.293 0.891 1.664l28 18.667c0.336 0.224 0.723 0.336 1.109 0.336s0.773-0.112 1.109-0.336l28-18.667c0.556-0.371 0.891-0.995 0.891-1.664v-18.667c0-0.669-0.334-1.293-0.891-1.664zM30 40.93l-10.395-6.93 10.395-6.93 10.395 6.93-10.395 6.93zM32 23.596v-13.859l22.394 14.93-10.394 6.93-12-8zM28 23.596l-12 8-10.395-6.93 22.395-14.93v13.859zM12.395 34l-8.395 5.596v-11.193l8.395 5.596zM16 36.404l12 8v13.859l-22.395-14.93 10.395-6.93zM32 44.404l12-8 10.395 6.93-22.395 14.93v-13.859zM47.605 34l8.395-5.596v11.193l-8.395-5.596z" fill="#727170"></path>
    </symbol>

    <symbol id="0419-flickr3" width="25" height="25" viewBox="0 0 64 64" >
      <title>0419-flickr3</title>
		<path d="M53.336 0h-42.668c-5.867 0-10.668 4.801-10.668 10.668v42.664c0 5.871 4.801 10.668 10.668 10.668h42.668c5.867 0 10.664-4.797 10.664-10.669v-42.664c0-5.867-4.797-10.668-10.664-10.668zM18 42c-5.523 0-10-4.477-10-10s4.477-10 10-10 10 4.477 10 10c0 5.523-4.477 10-10 10zM46 42c-5.523 0-10-4.477-10-10s4.477-10 10-10 10 4.477 10 10c0 5.523-4.477 10-10 10z" fill="#727170"></path>
    </symbol>

    <symbol id="0054-price-tag" width="10" height="10" viewBox="0 0 64 64" >
      <title>0054-price-tag</title>
		<path d="M61 0h-24c-1.65 0-3.955 0.955-5.121 2.121l-29.757 29.757c-1.167 1.167-1.167 3.076 0 4.243l25.757 25.757c1.167 1.167 3.076 1.167 4.243 0l29.757-29.757c1.167-1.167 2.121-3.471 2.121-5.121v-24c0-1.65-1.35-3-3-3zM46 24c-3.314 0-6-2.686-6-6s2.686-6 6-6 6 2.686 6 6-2.686 6-6 6z" fill="#CCF3FF"></path>
    </symbol>

    <symbol id="00542-price-tag" width="10" height="10" viewBox="0 0 64 64" >
      <title>00542-price-tag</title>
    <path d="M61 0h-24c-1.65 0-3.955 0.955-5.121 2.121l-29.757 29.757c-1.167 1.167-1.167 3.076 0 4.243l25.757 25.757c1.167 1.167 3.076 1.167 4.243 0l29.757-29.757c1.167-1.167 2.121-3.471 2.121-5.121v-24c0-1.65-1.35-3-3-3zM46 24c-3.314 0-6-2.686-6-6s2.686-6 6-6 6 2.686 6 6-2.686 6-6 6z" fill="#727170"></path>
    </symbol>

    <symbol id="0406-feed3" width="25" height="25" viewBox="0 0 64 64" >
      <title>0406-feed3</title>
		<path d="M53.334 0h-42.666c-5.867 0-10.668 4.801-10.668 10.668v42.664c0 5.871 4.801 10.668 10.668 10.668h42.666c5.867 0 10.666-4.797 10.666-10.668v-42.664c0-5.867-4.799-10.668-10.666-10.668zM17.434 51.953c-2.998 0-5.434-2.418-5.434-5.414 0-2.98 2.436-5.426 5.434-5.426 3.010 0 5.441 2.446 5.441 5.426-0 2.996-2.431 5.414-5.441 5.414zM31.092 52c0-5.113-1.988-9.926-5.591-13.528-3.607-3.609-8.398-5.602-13.494-5.602v-7.824c14.853 0 26.945 12.090 26.945 26.953l-7.86 0zM44.977 52c0-18.191-14.791-32.996-32.961-32.996v-7.828c22.5 0 40.809 18.32 40.809 40.825l-7.848-0z" fill="#727170"></path>
    </symbol>

    <symbol id="0410-youtube3" width="25" height="25" viewBox="0 0 64 64" >
      <title>0410-youtube3</title>
		<path d="M18.324 0l-4.324 8.577-4.324-8.577h-5.516l7.794 13.582 0.045-0.027v10.445h4v-10.445l0.045 0.027 7.794-13.582z" fill="#727170"></path>
		<path d="M30 8c1.084 0 2 0.916 2 2v8c0 1.084-0.916 2-2 2s-2-0.916-2-2v-8c0-1.084 0.916-2 2-2zM30 4c-3.3 0-6 2.7-6 6v8c0 3.3 2.7 6 6 6s6-2.7 6-6v-8c0-3.3-2.7-6-6-6v0z" fill="#727170"></path>
		<path d="M48 4v15.748c-1.745 1.456-4 2.333-4-2.852v-12.896h-4v13.708h0.006c0.062 3.307 0.759 9.261 7.994 4.419v1.873h4v-20h-4z" fill="#727170"></path>
		<path d="M54 44c-1.103 0-2 0.897-2 2v2h4v-2c0-1.103-0.897-2-2-2z" fill="#727170"></path>
		<path d="M36 46v10.5c1.354 1.354 4 1.5 4-0.5s0-7.375 0-9.375-2-2.625-4-0.625z" fill="#727170"></path>
		<path d="M63.673 36.346c-0.175-2.304-1.003-4.184-2.486-5.64s-3.38-2.25-5.692-2.38c-4.361-0.217-14.341-0.326-23.107-0.326s-19.456 0.109-23.817 0.326c-2.312 0.13-4.209 0.924-5.692 2.38s-2.312 3.336-2.486 5.64c-0.262 4.695-0.393 6.397-0.393 8.744s0.131 5.868 0.393 10.563c0.174 2.304 1.003 4.184 2.486 5.64s3.38 2.249 5.692 2.38c4.361 0.217 15.051 0.326 23.817 0.326s18.746-0.109 23.107-0.326c2.312-0.13 4.209-0.924 5.692-2.38s2.312-3.336 2.486-5.64c0.218-3.912 0.327-7.433 0.327-10.563s-0.109-4.832-0.327-8.744zM12 60h-4v-20h-4v-4h12v4h-4v20zM28 60h-4v-1.873c-7.604 4.268-7.932 0.137-7.994-3.169h-0.006v-10.958h4v11.021c0 2.417 2.255 2.183 4 0.727v-11.748h4v16zM44 55.943c0 4.181-4.282 5.4-8 2.149v1.908h-4v-24h4v6.5c4-4 8-2.5 8 1.5s0 7.573 0 11.943zM60 48v2h-8v4c0 1.103 0.897 2 2 2s2-0.897 2-2v-2h4v2c0 3.308-2.692 6-6 6s-6-2.692-6-6v-8c0-3.308 2.692-6 6-6s6 2.692 6 6v2z" fill="#727170"></path>
    </symbol>

</svg>
